<svg width="20" height="18" viewBox="0 0 20 18" fill="none" xmlns="http://www.w3.org/2000/svg">
<path d="M9.16602 8.16667H5.16602C4.23259 8.16667 3.76588 8.16667 3.40936 8.34832C3.09576 8.50811 2.84079 8.76308 2.681 9.07668C2.49935 9.4332 2.49935 9.89991 2.49935 10.8333V16.5M17.4993 16.5V4.16667C17.4993 3.23325 17.4993 2.76654 17.3177 2.41002C17.1579 2.09641 16.9029 1.84144 16.5893 1.68166C16.2328 1.5 15.7661 1.5 14.8327 1.5H11.8327C10.8993 1.5 10.4326 1.5 10.076 1.68166C9.76243 1.84144 9.50746 2.09641 9.34767 2.41002C9.16602 2.76654 9.16602 3.23325 9.16602 4.16667V16.5M18.3327 16.5H1.66602M12.0827 4.83333H14.5827M12.0827 8.16667H14.5827M12.0827 11.5H14.5827" stroke="currentColor" stroke-width="2" stroke-linecap="round" stroke-linejoin="round"/>
</svg>
